<?xml version="1.0" encoding="UTF-8" standalone="no"?>
<!DOCTYPE svg PUBLIC "-//W3C//DTD SVG 20010904//EN"
              "http://www.w3.org/TR/2001/REC-SVG-20010904/DTD/svg10.dtd">

<svg xmlns="http://www.w3.org/2000/svg"
     width="0.426667in" height="0.426667in"
     viewBox="0 0 128 128">
  <circle cx="64" cy="64" r="73" fill="white" />
  <path id="Unnamed"
        fill="black" stroke="black" stroke-width="3"
        d="M 30.00,80.00
           C 30.00,80.00 80.00,80.00 80.00,80.00
             80.00,80.00 80.00,50.00 80.00,50.00
             80.00,50.00 80.00,50.00 70.00,50.00
             50.00,50.00 50.00,60.00 50.00,60.00
             50.00,60.00 60.00,60.00 40.00,60.00
             40.00,50.00 30.00,50.00 30.00,50.00
             30.00,50.00 30.00,30.00 30.00,30.00
             30.00,30.00 100.00,30.00 100.00,30.00
             100.00,30.00 100.00,110.00 100.00,110.00
             100.00,110.00 80.00,110.00 80.00,110.00
             80.00,110.00 90.00,82.00 60.00,82.00
             30.00,82.00 43.50,82.00 30.00,82.00M 30.00,110.00
           C 30.00,110.00 20.00,120.00 20.00,120.00
             20.00,120.00 110.00,120.00 110.00,120.00
             110.00,120.00 100.00,110.00 100.00,110.00
             100.00,110.00 30.00,110.00 30.00,110.00M 30.00,80.00
           C 30.00,80.00 30.00,81.95 30.00,81.95" />
</svg>
